X Lossless Decoder version 20100123 (115.4)

XLD extraction logfile from 2010-02-01 23:06:01 -0800

Ellen Allien / Watergate 05

Used drive : HL-DT-ST DVDRW  GSA-S10N (revision BP08)

Use cdparanoia mode     : YES (CDParanoia III 10.2 engine)
Disable audio cache     : OK for the drive with cache less than 2750KB
Make use of C2 pointers : NO
Read offset correction  : 667
Max retry count         : 100

TOC of the extracted CD
     Track |   Start  |  Length  | Start sector | End sector 
    ---------------------------------------------------------
        1  | 00:00:00 | 04:23:17 |         0    |    19741   
        2  | 04:23:17 | 04:45:36 |     19742    |    41152   
        3  | 09:08:53 | 04:48:51 |     41153    |    62803   
        4  | 13:57:29 | 02:59:72 |     62804    |    76300   
        5  | 16:57:26 | 05:50:55 |     76301    |   102605   
        6  | 22:48:06 | 02:19:63 |    102606    |   113093   
        7  | 25:07:69 | 04:05:08 |    113094    |   131476   
        8  | 29:13:02 | 02:04:31 |    131477    |   140807   
        9  | 31:17:33 | 05:19:10 |    140808    |   164742   
       10  | 36:36:43 | 04:03:10 |    164743    |   182977   
       11  | 40:39:53 | 02:30:59 |    182978    |   194286   
       12  | 43:10:37 | 05:23:42 |    194287    |   218553   
       13  | 48:34:04 | 03:38:65 |    218554    |   234968   
       14  | 52:12:69 | 03:40:51 |    234969    |   251519   
       15  | 55:53:45 | 04:33:06 |    251520    |   272000   
       16  | 60:26:51 | 04:47:48 |    272001    |   293573   

Track 01
    Filename : /Users/brandon/Desktop/Ellen Allien - Watergate 05 [FLAC]/01 - Lost.flac
               /Users/brandon/Desktop/Ellen Allien - Watergate 05 [FLAC]/01 - Lost.mp3

    Pre-gap length : 00:02:00

    CRC32 hash (test run)  : 9463F49D
    CRC32 hash             : 9463F49D
    CRC32 hash (skip zero) : 1F9440A3
    AccurateRip signature  : E25987AF
        ->Track not present in AccurateRip database.
    Statistics
        Read error                           : 0
        Skipped (treated as error)           : 0
        Edge jitter error (maybe fixed)      : 0
        Atom jitter error (maybe fixed)      : 0
        Drift error (maybe fixed)            : 0
        Dropped bytes error (maybe fixed)    : 0
        Duplicated bytes error (maybe fixed) : 0
        Inconsistency in error sectors       : 0

Track 02
    Filename : /Users/brandon/Desktop/Ellen Allien - Watergate 05 [FLAC]/02 - The End of It All.flac
               /Users/brandon/Desktop/Ellen Allien - Watergate 05 [FLAC]/02 - The End of It All.mp3

    CRC32 hash (test run)  : 0E256E02
    CRC32 hash             : 0E256E02
    CRC32 hash (skip zero) : 238A7421
    AccurateRip signature  : 03A386AA
        ->Track not present in AccurateRip database.
    Statistics
        Read error                           : 0
        Skipped (treated as error)           : 0
        Edge jitter error (maybe fixed)      : 0
        Atom jitter error (maybe fixed)      : 0
        Drift error (maybe fixed)            : 0
        Dropped bytes error (maybe fixed)    : 0
        Duplicated bytes error (maybe fixed) : 0
        Inconsistency in error sectors       : 0

Track 03
    Filename : /Users/brandon/Desktop/Ellen Allien - Watergate 05 [FLAC]/03 - Music Lover.flac
               /Users/brandon/Desktop/Ellen Allien - Watergate 05 [FLAC]/03 - Music Lover.mp3

    CRC32 hash (test run)  : 88DCC116
    CRC32 hash             : 88DCC116
    CRC32 hash (skip zero) : BD0163F2
    AccurateRip signature  : B42B8B5E
        ->Track not present in AccurateRip database.
    Statistics
        Read error                           : 0
        Skipped (treated as error)           : 0
        Edge jitter error (maybe fixed)      : 0
        Atom jitter error (maybe fixed)      : 0
        Drift error (maybe fixed)            : 0
        Dropped bytes error (maybe fixed)    : 0
        Duplicated bytes error (maybe fixed) : 0
        Inconsistency in error sectors       : 0

Track 04
    Filename : /Users/brandon/Desktop/Ellen Allien - Watergate 05 [FLAC]/04 - Celestial.flac
               /Users/brandon/Desktop/Ellen Allien - Watergate 05 [FLAC]/04 - Celestial.mp3

    CRC32 hash (test run)  : B0C44D1E
    CRC32 hash             : B0C44D1E
    CRC32 hash (skip zero) : BF376681
    AccurateRip signature  : FB2051F8
        ->Track not present in AccurateRip database.
    Statistics
        Read error                           : 0
        Skipped (treated as error)           : 0
        Edge jitter error (maybe fixed)      : 0
        Atom jitter error (maybe fixed)      : 0
        Drift error (maybe fixed)            : 0
        Dropped bytes error (maybe fixed)    : 0
        Duplicated bytes error (maybe fixed) : 0
        Inconsistency in error sectors       : 0

Track 05
    Filename : /Users/brandon/Desktop/Ellen Allien - Watergate 05 [FLAC]/05 - Nur Ma Kurz (Philip Bader Remix).flac
               /Users/brandon/Desktop/Ellen Allien - Watergate 05 [FLAC]/05 - Nur Ma Kurz (Philip Bader Remix).mp3

    CRC32 hash (test run)  : C1492C42
    CRC32 hash             : C1492C42
    CRC32 hash (skip zero) : 75CB1877
    AccurateRip signature  : 68301385
        ->Track not present in AccurateRip database.
    Statistics
        Read error                           : 0
        Skipped (treated as error)           : 0
        Edge jitter error (maybe fixed)      : 0
        Atom jitter error (maybe fixed)      : 0
        Drift error (maybe fixed)            : 0
        Dropped bytes error (maybe fixed)    : 0
        Duplicated bytes error (maybe fixed) : 0
        Inconsistency in error sectors       : 0

Track 06
    Filename : /Users/brandon/Desktop/Ellen Allien - Watergate 05 [FLAC]/06 - Pretending.flac
               /Users/brandon/Desktop/Ellen Allien - Watergate 05 [FLAC]/06 - Pretending.mp3

    CRC32 hash (test run)  : 21EC49C1
    CRC32 hash             : 21EC49C1
    CRC32 hash (skip zero) : 4A324A64
    AccurateRip signature  : 59ABD8C2
        ->Track not present in AccurateRip database.
    Statistics
        Read error                           : 0
        Skipped (treated as error)           : 0
        Edge jitter error (maybe fixed)      : 0
        Atom jitter error (maybe fixed)      : 0
        Drift error (maybe fixed)            : 0
        Dropped bytes error (maybe fixed)    : 0
        Duplicated bytes error (maybe fixed) : 0
        Inconsistency in error sectors       : 0

Track 07
    Filename : /Users/brandon/Desktop/Ellen Allien - Watergate 05 [FLAC]/07 - All I Wanna Do.flac
               /Users/brandon/Desktop/Ellen Allien - Watergate 05 [FLAC]/07 - All I Wanna Do.mp3

    CRC32 hash (test run)  : 7761D7E2
    CRC32 hash             : 7761D7E2
    CRC32 hash (skip zero) : E02D14DD
    AccurateRip signature  : 9CC12DDA
        ->Track not present in AccurateRip database.
    Statistics
        Read error                           : 0
        Skipped (treated as error)           : 0
        Edge jitter error (maybe fixed)      : 0
        Atom jitter error (maybe fixed)      : 0
        Drift error (maybe fixed)            : 0
        Dropped bytes error (maybe fixed)    : 0
        Duplicated bytes error (maybe fixed) : 0
        Inconsistency in error sectors       : 0

Track 08
    Filename : /Users/brandon/Desktop/Ellen Allien - Watergate 05 [FLAC]/08 - The Dark (Black Mix).flac
               /Users/brandon/Desktop/Ellen Allien - Watergate 05 [FLAC]/08 - The Dark (Black Mix).mp3

    CRC32 hash (test run)  : FDB2611D
    CRC32 hash             : FDB2611D
    CRC32 hash (skip zero) : 49CFDE53
    AccurateRip signature  : 505C7FB1
        ->Track not present in AccurateRip database.
    Statistics
        Read error                           : 0
        Skipped (treated as error)           : 0
        Edge jitter error (maybe fixed)      : 0
        Atom jitter error (maybe fixed)      : 0
        Drift error (maybe fixed)            : 0
        Dropped bytes error (maybe fixed)    : 0
        Duplicated bytes error (maybe fixed) : 0
        Inconsistency in error sectors       : 0

Track 09
    Filename : /Users/brandon/Desktop/Ellen Allien - Watergate 05 [FLAC]/09 - Action 2.flac
               /Users/brandon/Desktop/Ellen Allien - Watergate 05 [FLAC]/09 - Action 2.mp3

    CRC32 hash (test run)  : F7672CBF
    CRC32 hash             : F7672CBF
    CRC32 hash (skip zero) : E625450E
    AccurateRip signature  : 0672CB15
        ->Track not present in AccurateRip database.
    Statistics
        Read error                           : 0
        Skipped (treated as error)           : 0
        Edge jitter error (maybe fixed)      : 0
        Atom jitter error (maybe fixed)      : 0
        Drift error (maybe fixed)            : 0
        Dropped bytes error (maybe fixed)    : 0
        Duplicated bytes error (maybe fixed) : 0
        Inconsistency in error sectors       : 0

Track 10
    Filename : /Users/brandon/Desktop/Ellen Allien - Watergate 05 [FLAC]/10 - Bo Jack (Vocal Mix).flac
               /Users/brandon/Desktop/Ellen Allien - Watergate 05 [FLAC]/10 - Bo Jack (Vocal Mix).mp3

    CRC32 hash (test run)  : CE470BD6
    CRC32 hash             : CE470BD6
    CRC32 hash (skip zero) : DBDB7590
    AccurateRip signature  : ABA25E89
        ->Track not present in AccurateRip database.
    Statistics
        Read error                           : 0
        Skipped (treated as error)           : 0
        Edge jitter error (maybe fixed)      : 0
        Atom jitter error (maybe fixed)      : 0
        Drift error (maybe fixed)            : 0
        Dropped bytes error (maybe fixed)    : 0
        Duplicated bytes error (maybe fixed) : 0
        Inconsistency in error sectors       : 0

Track 11
    Filename : /Users/brandon/Desktop/Ellen Allien - Watergate 05 [FLAC]/11 - Molar One.flac
               /Users/brandon/Desktop/Ellen Allien - Watergate 05 [FLAC]/11 - Molar One.mp3

    CRC32 hash (test run)  : 4393562B
    CRC32 hash             : 4393562B
    CRC32 hash (skip zero) : 540E334B
    AccurateRip signature  : 933A89C9
        ->Track not present in AccurateRip database.
    Statistics
        Read error                           : 0
        Skipped (treated as error)           : 0
        Edge jitter error (maybe fixed)      : 0
        Atom jitter error (maybe fixed)      : 0
        Drift error (maybe fixed)            : 0
        Dropped bytes error (maybe fixed)    : 0
        Duplicated bytes error (maybe fixed) : 0
        Inconsistency in error sectors       : 0

Track 12
    Filename : /Users/brandon/Desktop/Ellen Allien - Watergate 05 [FLAC]/12 - This Must Be It (Apparat Remix).flac
               /Users/brandon/Desktop/Ellen Allien - Watergate 05 [FLAC]/12 - This Must Be It (Apparat Remix).mp3

    CRC32 hash (test run)  : B338E467
    CRC32 hash             : B338E467
    CRC32 hash (skip zero) : 46AC4541
    AccurateRip signature  : 1D84E42D
        ->Track not present in AccurateRip database.
    Statistics
        Read error                           : 0
        Skipped (treated as error)           : 0
        Edge jitter error (maybe fixed)      : 0
        Atom jitter error (maybe fixed)      : 0
        Drift error (maybe fixed)            : 0
        Dropped bytes error (maybe fixed)    : 0
        Duplicated bytes error (maybe fixed) : 0
        Inconsistency in error sectors       : 0

Track 13
    Filename : /Users/brandon/Desktop/Ellen Allien - Watergate 05 [FLAC]/13 - Pop The Clock (Uffi Remix).flac
               /Users/brandon/Desktop/Ellen Allien - Watergate 05 [FLAC]/13 - Pop The Clock (Uffi Remix).mp3

    CRC32 hash (test run)  : 53F109A1
    CRC32 hash             : 53F109A1
    CRC32 hash (skip zero) : 32E60B4D
    AccurateRip signature  : 38A1450E
        ->Track not present in AccurateRip database.
    Statistics
        Read error                           : 0
        Skipped (treated as error)           : 0
        Edge jitter error (maybe fixed)      : 0
        Atom jitter error (maybe fixed)      : 0
        Drift error (maybe fixed)            : 0
        Dropped bytes error (maybe fixed)    : 0
        Duplicated bytes error (maybe fixed) : 0
        Inconsistency in error sectors       : 0

Track 14
    Filename : /Users/brandon/Desktop/Ellen Allien - Watergate 05 [FLAC]/14 - Connection (Heartthrob Remix).flac
               /Users/brandon/Desktop/Ellen Allien - Watergate 05 [FLAC]/14 - Connection (Heartthrob Remix).mp3

    CRC32 hash (test run)  : EC89CDA4
    CRC32 hash             : EC89CDA4
    CRC32 hash (skip zero) : E977233A
    AccurateRip signature  : 2CF9F2A6
        ->Track not present in AccurateRip database.
    Statistics
        Read error                           : 0
        Skipped (treated as error)           : 0
        Edge jitter error (maybe fixed)      : 0
        Atom jitter error (maybe fixed)      : 0
        Drift error (maybe fixed)            : 0
        Dropped bytes error (maybe fixed)    : 0
        Duplicated bytes error (maybe fixed) : 0
        Inconsistency in error sectors       : 0

Track 15
    Filename : /Users/brandon/Desktop/Ellen Allien - Watergate 05 [FLAC]/15 - Hidden From View (Hidden nsi. Mix).flac
               /Users/brandon/Desktop/Ellen Allien - Watergate 05 [FLAC]/15 - Hidden From View (Hidden nsi. Mix).mp3

    CRC32 hash (test run)  : 05270666
    CRC32 hash             : 05270666
    CRC32 hash (skip zero) : 5EEB13FA
    AccurateRip signature  : DDA7EBD5
        ->Track not present in AccurateRip database.
    Statistics
        Read error                           : 0
        Skipped (treated as error)           : 0
        Edge jitter error (maybe fixed)      : 0
        Atom jitter error (maybe fixed)      : 0
        Drift error (maybe fixed)            : 0
        Dropped bytes error (maybe fixed)    : 0
        Duplicated bytes error (maybe fixed) : 0
        Inconsistency in error sectors       : 0

Track 16
    Filename : /Users/brandon/Desktop/Ellen Allien - Watergate 05 [FLAC]/16 - Fine Mouche (Original Tango Piano Version).flac
               /Users/brandon/Desktop/Ellen Allien - Watergate 05 [FLAC]/16 - Fine Mouche (Original Tango Piano Version).mp3

    CRC32 hash (test run)  : 65162244
    CRC32 hash             : 65162244
    CRC32 hash (skip zero) : 9D184634
    AccurateRip signature  : A8ED0C8E
        ->Track not present in AccurateRip database.
    Statistics
        Read error                           : 0
        Skipped (treated as error)           : 0
        Edge jitter error (maybe fixed)      : 0
        Atom jitter error (maybe fixed)      : 0
        Drift error (maybe fixed)            : 0
        Dropped bytes error (maybe fixed)    : 0
        Duplicated bytes error (maybe fixed) : 0
        Inconsistency in error sectors       : 0

No errors occurred

End of status report
